<svg xmlns="http://www.w3.org/2000/svg" xmlns:xlink="http://www.w3.org/1999/xlink"><symbol id="icon-feature" viewBox="0 0 51 42">
<path d="M41.7273 21H37.0909V28H30.1364V32.6667H41.7273V21ZM13.9091 14H20.8636V9.33333H9.27273V21H13.9091V14ZM46.3636 0H4.63636C3.40672 0 2.22745 0.491665 1.35796 1.36683C0.488473 2.242 0 3.42899 0 4.66667V37.3333C0 38.571 0.488473 39.758 1.35796 40.6332C2.22745 41.5083 3.40672 42 4.63636 42H46.3636C47.5933 42 48.7726 41.5083 49.642 40.6332C50.5115 39.758 51 38.571 51 37.3333V4.66667C51 3.42899 50.5115 2.242 49.642 1.36683C48.7726 0.491665 47.5933 0 46.3636 0ZM46.3636 37.3333H4.63636V4.66667H46.3636V37.3333Z" fill="#2091F9"/>
</symbol><symbol id="icon-like" viewBox="0 0 85 85">
<path d="M42.3749 21.7053C29.3659 1.61086 3.03613 12.5576 3.03613 34.4472C3.03613 50.8845 39.1328 76.597 42.3749 79.9404C45.6393 76.597 79.9409 50.8845 79.9409 34.4472C79.9409 12.7236 55.4083 1.61086 42.3749 21.7053Z" fill="white"/>
</symbol><symbol id="icon-search" viewBox="0 0 20 20">
<path fill-rule="evenodd" clip-rule="evenodd" d="M14.3257 12.899L19.7057 18.279C19.8948 18.4682 20.001 18.7248 20.0009 18.9923C20.0008 19.2599 19.8945 19.5164 19.7052 19.7055C19.516 19.8946 19.2594 20.0008 18.9919 20.0007C18.7244 20.0006 18.4678 19.8942 18.2787 19.705L12.8987 14.325C11.2905 15.5707 9.26802 16.1569 7.24287 15.9643C5.21772 15.7718 3.34198 14.815 1.99723 13.2886C0.652477 11.7622 -0.0602651 9.7808 0.00399633 7.74753C0.0682577 5.71427 0.904695 3.78185 2.34315 2.34339C3.7816 0.904939 5.71402 0.0685019 7.74729 0.00424047C9.78056 -0.0600209 11.7619 0.652721 13.2884 1.99747C14.8148 3.34222 15.7716 5.21796 15.9641 7.24312C16.1566 9.26827 15.5704 11.2907 14.3247 12.899H14.3257ZM8.00074 14C9.59204 14 11.1182 13.3678 12.2434 12.2426C13.3686 11.1174 14.0007 9.59129 14.0007 7.99999C14.0007 6.40869 13.3686 4.88257 12.2434 3.75735C11.1182 2.63213 9.59204 1.99999 8.00074 1.99999C6.40944 1.99999 4.88332 2.63213 3.7581 3.75735C2.63289 4.88257 2.00074 6.40869 2.00074 7.99999C2.00074 9.59129 2.63289 11.1174 3.7581 12.2426C4.88332 13.3678 6.40944 14 8.00074 14Z" fill="#BDBDBD"/>
</symbol><symbol id="icon-trend" viewBox="0 0 68 43">
<path fill-rule="evenodd" clip-rule="evenodd" d="M42.4478 8.5C41.3206 8.5 40.2396 8.05223 39.4426 7.2552C38.6455 6.45817 38.1978 5.37717 38.1978 4.25C38.1978 3.12283 38.6455 2.04183 39.4426 1.2448C40.2396 0.447767 41.3206 0 42.4478 0H63.6978C64.8249 0 65.906 0.447767 66.703 1.2448C67.5 2.04183 67.9478 3.12283 67.9478 4.25V25.5C67.9478 26.6272 67.5 27.7082 66.703 28.5052C65.906 29.3022 64.8249 29.75 63.6978 29.75C62.5706 29.75 61.4896 29.3022 60.6926 28.5052C59.8955 27.7082 59.4478 26.6272 59.4478 25.5V14.5095L41.2025 32.7547C40.4055 33.5515 39.3247 33.9991 38.1978 33.9991C37.0708 33.9991 35.99 33.5515 35.193 32.7547L25.4478 23.0095L7.20253 41.2547C6.40097 42.0289 5.32741 42.4573 4.21307 42.4476C3.09873 42.4379 2.03278 41.991 1.2448 41.203C0.456812 40.415 0.00984394 39.349 0.000160661 38.2347C-0.00952262 37.1204 0.418853 36.0468 1.19302 35.2453L22.443 13.9953C23.24 13.1985 24.3208 12.7509 25.4478 12.7509C26.5747 12.7509 27.6555 13.1985 28.4525 13.9953L38.1978 23.7405L53.4383 8.5H42.4478Z" fill="white"/>
</symbol><symbol id="icon-users" viewBox="0 0 85 85">
<path d="M42.2638 40.8472C48.6388 40.8472 53.5971 35.6527 53.5971 29.2777C53.5971 22.9027 48.4027 17.9444 42.0277 17.9444C35.6527 17.9444 30.6943 23.1388 30.6943 29.2777C30.6943 35.6527 35.8888 40.8472 42.2638 40.8472ZM42.0277 22.6666C42.2638 22.6666 42.2638 22.6666 42.0277 22.6666C45.8054 22.6666 48.8749 25.7361 48.8749 29.5138C48.8749 33.2916 45.8054 36.125 42.0277 36.125C38.2499 36.125 35.4166 33.0555 35.4166 29.5138C35.4166 25.7361 38.486 22.6666 42.0277 22.6666Z" fill="white"/>
<path d="M77.2087 39.4306C72.7225 35.4167 66.8198 33.2917 60.6809 33.5278H58.792C58.3198 35.4167 57.6114 37.0695 56.667 38.4861C58.0837 38.25 59.2642 38.25 60.6809 38.25C65.167 38.0139 69.6531 39.4306 73.1948 42.0278V59.0278H77.917V40.1389L77.2087 39.4306Z" fill="white"/>
<path d="M55.2499 18.4167C56.4304 15.5834 59.736 14.1667 62.8055 15.3473C65.6388 16.5278 67.0555 19.8334 65.8749 22.9028C64.9305 25.0278 62.8055 26.4445 60.6805 26.4445C60.2082 26.4445 59.4999 26.4445 59.0277 26.2084C59.2638 27.3889 59.2638 28.5695 59.2638 29.5139V30.9306C59.736 30.9306 60.2082 31.1667 60.6805 31.1667C66.5832 31.1667 71.3055 26.4445 71.3055 20.7778C71.3055 14.8751 66.5832 10.1528 60.9166 10.1528C57.1388 10.1528 53.8332 12.0417 51.9443 15.3473C53.1249 16.0556 54.3054 17.0001 55.2499 18.4167Z" fill="white"/>
<path d="M28.333 38.7223C27.3886 37.3056 26.6802 35.6528 26.208 33.7639H24.3191C18.1802 33.5278 12.2775 35.6528 7.79134 39.4306L7.08301 40.1389V59.0278H11.8052V42.0278C15.583 39.4306 19.833 38.0139 24.3191 38.25C25.7358 38.25 27.1525 38.4861 28.333 38.7223Z" fill="white"/>
<path d="M24.319 30.9306C24.7912 30.9306 25.2635 30.9306 25.7357 30.6945V29.2778C25.7357 28.0973 25.7357 26.9167 25.9718 25.9723C25.4996 26.2084 24.7912 26.2084 24.319 26.2084C21.2496 26.2084 18.6523 23.6112 18.6523 20.5417C18.6523 17.4723 21.2496 14.8751 24.319 14.8751C26.6801 14.8751 28.8051 16.2917 29.7496 18.4167C30.694 17.2362 32.1107 16.0556 33.2912 15.1112C30.2218 10.1528 23.8468 8.50006 18.8885 11.5695C13.9301 14.6389 12.2773 21.0139 15.3468 25.9723C17.2357 29.0417 20.5412 30.9306 24.319 30.9306Z" fill="white"/>
<path d="M61.6252 53.5972L61.153 52.8889C56.4308 47.6945 49.8197 44.625 42.7363 44.8611C35.653 44.625 28.8058 47.6945 24.0835 52.8889L23.6113 53.5972V71.5417C23.6113 73.6667 25.2641 75.5556 27.6252 75.5556H57.8474C59.9724 75.5556 61.8613 73.6667 61.8613 71.5417V53.5972H61.6252ZM56.903 70.8333H28.3335V55.25C32.1113 51.4722 37.3058 49.5833 42.7363 49.5833C47.9308 49.3472 53.1252 51.4722 56.903 55.25V70.8333Z" fill="white"/>
</symbol><symbol id="icon-world" viewBox="0 0 85 85">
<path d="M42.4997 7.08333C22.9709 7.08333 7.08301 22.9713 7.08301 42.5C7.08301 62.0288 22.9709 77.9167 42.4997 77.9167C62.0284 77.9167 77.9163 62.0288 77.9163 42.5C77.9163 22.9713 62.0284 7.08333 42.4997 7.08333ZM14.1663 42.5C14.1663 39.316 14.7188 36.2596 15.6928 33.4015L21.2497 38.9583L28.333 46.0417V53.125L35.4163 60.2083L38.958 63.75V70.589C25.0074 68.8358 14.1663 56.9217 14.1663 42.5ZM64.9184 59.7585C62.6057 57.8956 59.0995 56.6667 56.6663 56.6667V53.125C56.6663 51.2464 55.9201 49.4447 54.5917 48.1163C53.2633 46.7879 51.4616 46.0417 49.583 46.0417H35.4163V35.4167C37.295 35.4167 39.0966 34.6704 40.425 33.342C41.7534 32.0136 42.4997 30.212 42.4997 28.3333V24.7917H46.0413C47.92 24.7917 49.7216 24.0454 51.05 22.717C52.3784 21.3886 53.1247 19.587 53.1247 17.7083V16.2527C63.4947 20.4638 70.833 30.6354 70.833 42.5C70.8324 48.75 68.7515 54.822 64.9184 59.7585Z" fill="white"/>
</symbol></svg>